<svg width="19" height="26" viewBox="0 0 19 26" fill="none" xmlns="http://www.w3.org/2000/svg">
<path d="M17.4951 18.846C19.1102 20.9132 18.7362 24.0069 16.2194 24.7467C15.4872 24.9619 14.7339 25.111 13.9683 25.1904C11.6162 25.4344 9.24302 25.0109 7.1205 23.9685C4.99798 22.9261 3.21198 21.307 1.96709 19.2965C0.7222 17.2861 0.0687645 14.9656 0.0816318 12.601C0.0945006 10.2364 0.773151 7.92318 2.03985 5.9264C3.30654 3.92961 5.11006 2.32999 7.2438 1.31077C9.37754 0.291551 11.7552 -0.106052 14.1045 0.163507C14.8692 0.251252 15.6208 0.408533 16.3506 0.631694C18.8593 1.39884 19.1995 4.49639 17.562 6.54592L15.0121 9.7375C13.6388 11.4563 13.6256 13.8932 14.98 15.6268L17.4951 18.846Z" fill="#2D97CD"/>
</svg>
