<svg xmlns="http://www.w3.org/2000/svg" version="1.1" xmlns:xlink="http://www.w3.org/1999/xlink" xmlns:svgjs="http://svgjs.com/svgjs" width="512" height="512" x="0" y="0" viewBox="0 0 512 512" style="enable-background:new 0 0 512 512" xml:space="preserve" class=""><g>
<path xmlns="http://www.w3.org/2000/svg" style="" d="M512,256.001c0,9.55-0.522,18.975-1.557,28.254c-1.16,10.637-2.978,21.076-5.413,31.284  c-22.371,93.978-96.569,167.852-190.715,189.785c-9.812,2.288-19.843,4.012-30.051,5.12C274.986,511.478,265.551,512,256,512  c-141.385,0-256-114.615-256-256s114.615-256,256-256S512,114.615,512,256.001z" fill="#36539c" data-original="#36539c"></path>
<path xmlns="http://www.w3.org/2000/svg" style="" d="M510.443,284.255c-1.16,10.637-2.978,21.076-5.413,31.284  c-22.371,93.978-96.569,167.852-190.715,189.785c-9.812,2.288-19.843,4.012-30.051,5.12  c-99.997-12.392-177.403-97.667-177.403-201.017c0-111.867,90.697-202.564,202.574-202.564  C412.777,106.862,498.051,184.268,510.443,284.255z" fill="#4e62b1" data-original="#4e62b1"></path>
<path xmlns="http://www.w3.org/2000/svg" style="" d="M505.031,315.539c-22.371,93.978-96.569,167.852-190.715,189.785l-87.448-172.084L332.33,227.778  L505.031,315.539z" fill="#fff79e" data-original="#fff79e"></path>
<circle xmlns="http://www.w3.org/2000/svg" style="" cx="244.674" cy="244.674" r="101.366" fill="#fce45b" data-original="#fce45b"></circle>
<path xmlns="http://www.w3.org/2000/svg" style="" d="M310.851,156.906c-19.083-19.083-46.98-23.963-70.583-14.663L106.771,8.744  c-11.659-11.659-30.561-11.659-42.22,0L8.747,64.548c-11.659,11.659-11.659,30.561,0,42.22l133.498,133.498  c-9.3,23.603-4.42,51.5,14.663,70.583l40.043,40.043l153.944-153.944L310.851,156.906z" fill="#e8509a" data-original="#e8509a" class=""></path>
<path xmlns="http://www.w3.org/2000/svg" style="" d="M199.392,364.104L199.392,364.104c-4.777-4.777-4.777-12.524,0-17.301L346.804,199.39  c4.777-4.777,12.523-4.777,17.301,0l0,0c4.777,4.777,4.777,12.523,0,17.301L216.693,364.104  C211.916,368.881,204.169,368.881,199.392,364.104z" fill="#73d4ff" data-original="#73d4ff"></path>
<path xmlns="http://www.w3.org/2000/svg" style="" d="M235.227,328.269c-4.777-4.777-4.777-12.523,0-17.301l-35.835,35.835  c-4.777,4.777-4.777,12.524,0,17.301c4.777,4.777,12.523,4.777,17.301,0l35.834-35.834  C247.75,333.047,240.004,333.047,235.227,328.269z" fill="#079acc" data-original="#079acc"></path>
<path xmlns="http://www.w3.org/2000/svg" style="" d="M182.194,200.321l58.076-58.076l-16.441-16.441l-45.768,45.768c-19.03,19.03-49.882,19.03-68.912,0  l-82.6-82.6C14.89,77.313,11.454,61.848,18.878,54.424L8.744,64.558c-11.658,11.658-11.658,30.559,0,42.217l133.498,133.497  c-9.302,23.605-4.416,51.495,14.665,70.576l40.042,40.042l27.955-27.955l-40.042-40.042c-2.41-2.41-4.659-4.893-6.745-7.429  C159.852,253.248,161.857,220.658,182.194,200.321z" fill="#dc2d8d" data-original="#dc2d8d" class=""></path>
<g xmlns="http://www.w3.org/2000/svg">
</g>
<g xmlns="http://www.w3.org/2000/svg">
</g>
<g xmlns="http://www.w3.org/2000/svg">
</g>
<g xmlns="http://www.w3.org/2000/svg">
</g>
<g xmlns="http://www.w3.org/2000/svg">
</g>
<g xmlns="http://www.w3.org/2000/svg">
</g>
<g xmlns="http://www.w3.org/2000/svg">
</g>
<g xmlns="http://www.w3.org/2000/svg">
</g>
<g xmlns="http://www.w3.org/2000/svg">
</g>
<g xmlns="http://www.w3.org/2000/svg">
</g>
<g xmlns="http://www.w3.org/2000/svg">
</g>
<g xmlns="http://www.w3.org/2000/svg">
</g>
<g xmlns="http://www.w3.org/2000/svg">
</g>
<g xmlns="http://www.w3.org/2000/svg">
</g>
<g xmlns="http://www.w3.org/2000/svg">
</g>
</g></svg>